<?xml version="1.0" encoding="utf-8"?>
<!-- Generator: Adobe Illustrator 24.0.3, SVG Export Plug-In . SVG Version: 6.00 Build 0)  -->
<svg version="1.1" id="Слой_1" xmlns="http://www.w3.org/2000/svg" xmlns:xlink="http://www.w3.org/1999/xlink" x="0px" y="0px"
	 viewBox="0 0 100 100" style="enable-background:new 0 0 100 100;" xml:space="preserve">
<style type="text/css">
	.st0{fill:#FF3E00;}
	.st1{fill:#FFFFFF;}
</style>
<path id="back" class="st0" d="M84.15,16.29C75.67,4.15,58.91,0.55,46.8,8.27L25.53,21.83c-5.81,3.65-9.81,9.57-11.03,16.31
	c-1.02,5.63-0.13,11.44,2.53,16.51c-1.82,2.76-3.06,5.86-3.65,9.12c-1.23,6.89,0.38,13.98,4.45,19.68
	c8.48,12.14,25.24,15.74,37.35,8.02l21.27-13.5c5.8-3.65,9.8-9.57,11.03-16.31c1.01-5.63,0.12-11.44-2.54-16.5
	c1.82-2.76,3.06-5.87,3.65-9.12c1.22-6.89-0.38-13.98-4.45-19.68"/>
<path id="front" class="st1" d="M44.72,83.62c-6.86,1.78-14.1-0.91-18.14-6.73c-2.45-3.42-3.41-7.69-2.67-11.83
	c0.12-0.67,0.29-1.32,0.51-1.97l0.4-1.22l1.09,0.82c2.51,1.83,5.32,3.23,8.3,4.13l0.82,0.24l-0.07,0.82
	c-0.08,1.12,0.24,2.23,0.89,3.14c1.22,1.75,3.4,2.56,5.47,2.02c0.46-0.12,0.9-0.32,1.31-0.57l21.24-13.56
	c1.05-0.66,1.78-1.74,2-2.97c0.22-1.25-0.07-2.54-0.82-3.56c-1.22-1.75-3.4-2.56-5.47-2.02c-0.46,0.12-0.9,0.31-1.31,0.57L50.1,56.1
	c-1.33,0.85-2.79,1.48-4.32,1.89c-6.85,1.77-14.07-0.91-18.11-6.72c-2.44-3.43-3.39-7.69-2.65-11.83c0.73-4.07,3.14-7.64,6.63-9.84
	l21.31-13.56c1.33-0.84,2.77-1.48,4.29-1.89c6.86-1.78,14.1,0.91,18.13,6.73c2.45,3.42,3.41,7.69,2.68,11.83
	c-0.13,0.67-0.3,1.33-0.51,1.98l-0.41,1.22l-1.08-0.82c-2.52-1.85-5.33-3.26-8.32-4.16l-0.82-0.24l0.07-0.82
	c0.09-1.12-0.21-2.25-0.86-3.17c-1.23-1.72-3.39-2.5-5.43-1.97c-0.46,0.12-0.9,0.31-1.31,0.57L38.12,38.86
	c-1.05,0.66-1.78,1.74-2,2.96c-0.22,1.25,0.08,2.54,0.82,3.57c1.21,1.74,3.37,2.54,5.42,2.02c0.46-0.13,0.9-0.32,1.31-0.57
	l8.16-5.17c1.33-0.86,2.79-1.5,4.32-1.9c6.86-1.79,14.1,0.9,18.13,6.72c2.45,3.42,3.41,7.69,2.68,11.83
	c-0.73,4.07-3.14,7.64-6.63,9.84L49.04,81.72C47.71,82.57,46.25,83.21,44.72,83.62"/>
</svg>
