<svg version="1" xmlns="http://www.w3.org/2000/svg" width="122.667" height="122.667" viewBox="0 0 92.000000 92.000000"><path d="M48.8 1.4c-4.6 1.7-26.1 15-30.6 19-6.8 6-9.9 17.7-7 26.2 1.3 3.7 1.3 4.5-.1 7-1.1 2-1.6 5.5-1.6 10.9 0 6.9.4 8.6 2.7 12.6 5.5 9.3 14.1 14.2 25 14.2 8 0 11.5-1.6 28.8-13.1 8.9-6 12.1-8.8 14.3-12.4 3.5-5.6 4.6-14.3 2.5-20.3-1.2-3.6-1.2-4.5.5-9C89.6 19.8 77.4 1.9 58.7.4c-4-.3-7.5.1-9.9 1zm17 10.3c3.9 1.8 6.6 5.4 8 10.5 1 3.7.4 8.8-1 8.8-1.9 0-9.8-4.5-9.8-5.6 0-1.8-2.9-4.4-4.9-4.4-1.8 0-21.3 11.9-24.5 15-1.7 1.6-1.8 2.3-.8 4.5 1.6 3.5 4.8 3.2 12.1-1.1 7.9-4.7 13.1-5.3 19.1-2.2 6.1 3.1 9 7.7 9 14.2 0 7.8-2 10.1-17.6 19.9C43 79.1 41.1 80 36.8 80c-8 0-14.7-4.9-16.7-12.4-1-3.7-.5-10 .8-9.3.3.1 2.7 1.3 5.2 2.5 3.2 1.5 4.9 3 5.3 4.7 1.3 5 4.6 4.3 17.1-3.6 6.4-4 12-7.9 12.6-8.5 1.4-1.7.2-5.2-2.2-6.5-1.7-.9-3.3-.3-9.2 3.2-6 3.6-8.1 4.3-12.3 4.3-9.5 0-16.4-7-16.4-16.7 0-6.7 2.9-10 16.8-18.8C54 8.5 57.1 7.7 65.8 11.7z"/></svg>